<svg width="150" height="137" viewBox="0 0 150 137" fill="none" xmlns="http://www.w3.org/2000/svg">
<path d="M55.4686 50.8934L74.1551 32.2298L68.029 26.1104L59.4647 34.6654C59.3626 34.7676 59.2413 34.8487 59.1078 34.904C58.9742 34.9594 58.8311 34.9879 58.6865 34.9879C58.5419 34.9879 58.3988 34.9594 58.2652 34.904C58.1317 34.8487 58.0104 34.7676 57.9082 34.6654L56.3517 33.1106C55.9213 32.6806 55.9213 31.9843 56.3517 31.5557L64.916 23.0007L60.2451 18.3334C58.5247 16.6149 55.7366 16.6149 54.0163 18.3334L41.56 30.7762C39.841 32.4947 39.8396 35.2799 41.56 36.9983L55.4686 50.8934ZM109.408 34.6931C112.013 32.0911 112.011 27.8732 109.408 25.2712L103.125 18.995C100.52 16.393 96.2962 16.393 93.69 18.995L87.3001 25.3766L103.018 41.0775L109.408 34.6931ZM84.1579 28.5168L42.9193 69.7053L40.3145 84.6073C39.9632 86.6171 41.7155 88.3675 43.7288 88.0138L58.6483 85.4007L99.8757 44.2163L84.1579 28.5168ZM110.072 68.1061L105.401 63.4402L96.8363 71.9952C96.4059 72.4252 95.7088 72.4252 95.2798 71.9952L93.7233 70.4404C93.2942 70.0104 93.2942 69.3142 93.7233 68.8856L102.288 60.3305L96.1587 54.2083L77.4722 72.8718L91.3864 86.7696C93.1068 88.4881 95.8949 88.4881 97.6153 86.7696L110.072 74.3282C111.792 72.6097 111.792 69.8246 110.072 68.1061Z" fill="url(#paint0_linear_4_77)"/>
<path d="M2.58262 136.348H0V114.822H2.52708L10.15 129.15L10.9831 131.286H11.0525L10.9831 129.15V114.822H13.5657V136.348H10.9831L3.56845 122.256L2.52708 119.995L2.58262 122.228V136.348Z" fill="#008080"/>
<path d="M23.8684 136.778C21.6468 136.778 19.8695 136.006 18.5365 134.462C17.2036 132.908 16.5371 130.953 16.5371 128.595C16.5371 126.237 17.2036 124.286 18.5365 122.742C19.8695 121.197 21.6468 120.425 23.8684 120.425C26.0807 120.425 27.8534 121.197 29.1863 122.742C30.5193 124.286 31.1858 126.237 31.1858 128.595C31.1858 130.953 30.5193 132.908 29.1863 134.462C27.8534 136.006 26.0807 136.778 23.8684 136.778ZM23.8684 134.628C25.2476 134.628 26.3445 134.092 27.1591 133.019C27.9737 131.947 28.381 130.472 28.381 128.595C28.381 126.727 27.9737 125.257 27.1591 124.184C26.3445 123.111 25.2476 122.575 23.8684 122.575C22.4799 122.575 21.3783 123.111 20.5637 124.184C19.7491 125.257 19.3419 126.727 19.3419 128.595C19.3419 130.472 19.7491 131.947 20.5637 133.019C21.3783 134.092 22.4799 134.628 23.8684 134.628Z" fill="#008080"/>
<path d="M47.5285 135.724C46.3158 136.233 45.4365 136.533 44.8903 136.626C44.3442 136.727 43.8165 136.778 43.3074 136.778C42.2244 136.778 41.2339 136.57 40.336 136.154C39.4381 135.738 38.7578 135.123 38.2949 134.309C37.8413 133.495 37.6146 132.238 37.6146 130.537V124.295H33.7406V122.145H37.6146V115.904H40.1972V122.145H47.098V124.295H40.1972V130.495C40.1972 131.743 40.3453 132.626 40.6415 133.144C40.9377 133.653 41.3311 134.027 41.8217 134.268C42.3216 134.508 42.9094 134.628 43.5851 134.628C44.8348 134.628 46.1492 134.235 47.5285 133.449V135.724Z" fill="#008080"/>
<path d="M64.5376 135.322C62.4734 136.302 60.5202 136.792 58.6781 136.792C57.2804 136.792 56.0307 136.445 54.9292 135.752C53.8276 135.058 52.9436 134.069 52.2771 132.784C51.6199 131.489 51.2913 130.107 51.2913 128.636C51.2913 127.222 51.606 125.862 52.2355 124.559C52.8649 123.255 53.7443 122.242 54.8736 121.521C56.003 120.791 57.2619 120.425 58.6504 120.425C60.4925 120.425 61.9689 121.082 63.0797 122.395C64.1998 123.708 64.7598 125.733 64.7598 128.47V129.025H54.0683C54.0683 130.097 54.2905 131.077 54.7348 131.965C55.1884 132.853 55.7808 133.519 56.5121 133.962C57.2434 134.406 58.0765 134.628 59.0114 134.628C60.6776 134.628 62.5197 134.073 64.5376 132.964V135.322ZM54.2211 127.097H61.955V126.722C61.955 125.455 61.6449 124.448 61.0247 123.699C60.4045 122.95 59.576 122.575 58.5393 122.575C57.4933 122.575 56.5861 122.959 55.8178 123.726C55.0588 124.485 54.5265 125.608 54.2211 127.097Z" fill="#008080"/>
<path d="M81.6718 136.098C80.0611 136.699 78.6171 137 77.3396 137C75.6549 137 74.1044 136.552 72.6881 135.655C71.2719 134.748 70.1703 133.408 69.3835 131.632C68.5967 129.848 68.2033 127.832 68.2033 125.585C68.2033 123.356 68.5921 121.355 69.3696 119.579C70.1472 117.804 71.2441 116.458 72.6604 115.543C74.0766 114.628 75.6364 114.17 77.3396 114.17C78.6171 114.17 80.0611 114.47 81.6718 115.071V117.624C80.1814 116.764 78.7004 116.334 77.2286 116.334C76.1177 116.334 75.0995 116.713 74.1738 117.471C73.2574 118.229 72.5169 119.343 71.9522 120.814C71.3876 122.275 71.1052 123.865 71.1052 125.585C71.1052 127.333 71.3968 128.946 71.98 130.426C72.5632 131.905 73.3083 133.015 74.2155 133.754C75.1227 134.485 76.127 134.85 77.2286 134.85C78.6911 134.85 80.1722 134.42 81.6718 133.56V136.098Z" fill="#008080"/>
<path d="M87.1147 136.348V120.855H89.6973V124.24C90.5026 122.964 91.4237 122.011 92.4604 121.382C93.5064 120.744 94.6682 120.425 95.9456 120.425C96.8805 120.425 97.8154 120.569 98.7504 120.855V126.445H96.2649V122.908C95.8299 122.834 95.4874 122.797 95.2374 122.797C94.2747 122.797 93.3306 123.176 92.4049 123.934C91.4792 124.693 90.5767 125.83 89.6973 127.346V136.348H87.1147Z" fill="#008080"/>
<path d="M113.066 132.867C112.279 134.161 111.33 135.137 110.219 135.793C109.118 136.45 108.104 136.778 107.179 136.778C105.883 136.778 104.716 136.219 103.68 135.1C102.652 133.981 102.138 132.284 102.138 130.009C102.138 128.216 102.481 126.616 103.166 125.21C103.851 123.796 104.767 122.681 105.915 121.868C107.063 121.045 108.484 120.633 110.178 120.633C110.668 120.633 111.409 120.684 112.399 120.786C112.547 120.804 112.77 120.828 113.066 120.855H115.662V131.799C115.662 133.667 115.857 135.183 116.245 136.348H113.552C113.348 135.497 113.186 134.337 113.066 132.867ZM113.066 129.801V123.158C112.149 122.917 111.298 122.797 110.511 122.797C108.919 122.797 107.59 123.412 106.526 124.642C105.471 125.872 104.943 127.545 104.943 129.663C104.943 131.198 105.23 132.358 105.804 133.144C106.387 133.921 107.049 134.309 107.79 134.309C108.595 134.309 109.483 133.902 110.455 133.089C111.427 132.275 112.298 131.179 113.066 129.801Z" fill="#008080"/>
<path d="M123.563 136.348V124.295H120.119V122.145H123.563V121.424C123.563 119.38 123.794 117.869 124.257 116.888C124.72 115.908 125.433 115.104 126.395 114.475C127.367 113.846 128.649 113.532 130.242 113.532C131.445 113.532 132.667 113.657 133.907 113.906V116.361C132.565 115.918 131.376 115.696 130.339 115.696C129.515 115.696 128.788 115.848 128.159 116.153C127.529 116.458 127.034 116.958 126.673 117.651C126.321 118.336 126.146 119.501 126.146 121.147V122.145H132.297V124.295H126.146V136.348H123.563Z" fill="#008080"/>
<path d="M150 135.724C148.787 136.233 147.908 136.533 147.362 136.626C146.816 136.727 146.288 136.778 145.779 136.778C144.696 136.778 143.705 136.57 142.808 136.154C141.91 135.738 141.229 135.123 140.766 134.309C140.313 133.495 140.086 132.238 140.086 130.537V124.295H136.212V122.145H140.086V115.904H142.669V122.145H149.57V124.295H142.669V130.495C142.669 131.743 142.817 132.626 143.113 133.144C143.409 133.653 143.803 134.027 144.293 134.268C144.793 134.508 145.381 134.628 146.057 134.628C147.306 134.628 148.621 134.235 150 133.449V135.724Z" fill="#008080"/>
<defs>
<linearGradient id="paint0_linear_4_77" x1="74.9989" y1="-272.625" x2="74.9989" y2="136.997" gradientUnits="userSpaceOnUse">
<stop stop-color="#40E0D0"/>
<stop offset="1" stop-color="#008080"/>
</linearGradient>
</defs>
</svg>
