<svg width="107" height="97" viewBox="0 0 107 97" fill="none" xmlns="http://www.w3.org/2000/svg">
<path d="M39.6899 35.833L52.8325 22.6924L48.5239 18.3838L42.5005 24.4072C42.4287 24.4792 42.3433 24.5363 42.2494 24.5753C42.1555 24.6142 42.0548 24.6343 41.9531 24.6343C41.8515 24.6343 41.7508 24.6142 41.6568 24.5753C41.5629 24.5363 41.4776 24.4792 41.4058 24.4072L40.311 23.3125C40.0083 23.0098 40.0083 22.5195 40.311 22.2178L46.3345 16.1943L43.0493 12.9082C41.8394 11.6982 39.8784 11.6982 38.6685 12.9082L29.9077 21.6689C28.6987 22.8789 28.6978 24.8398 29.9077 26.0498L39.6899 35.833ZM77.6265 24.4268C79.4585 22.5947 79.4575 19.625 77.6265 17.793L73.2075 13.374C71.3755 11.542 68.4048 11.542 66.5718 13.374L62.0776 17.8672L73.1323 28.9219L77.6265 24.4268ZM59.8677 20.0781L30.8638 49.0781L29.0317 59.5703C28.7847 60.9854 30.0171 62.2178 31.4331 61.9688L41.9263 60.1289L70.9224 31.1318L59.8677 20.0781ZM78.0933 47.9522L74.8081 44.667L68.7847 50.6904C68.4819 50.9932 67.9917 50.9932 67.6899 50.6904L66.5952 49.5957C66.2935 49.293 66.2935 48.8027 66.5952 48.501L72.6187 42.4775L68.3081 38.167L55.1655 51.3076L64.9517 61.0928C66.1616 62.3027 68.1226 62.3027 69.3325 61.0928L78.0933 52.333C79.3032 51.123 79.3032 49.1621 78.0933 47.9522Z" fill="url(#paint0_linear_4_76)"/>
<path d="M2.49414 96H0.677734V80.8438H2.45508L7.81641 90.9316L8.40234 92.4355H8.45117L8.40234 90.9316V80.8438H10.2188V96H8.40234L3.1875 86.0781L2.45508 84.4863L2.49414 86.0586V96Z" fill="#008080"/>
<path d="M17.4648 96.3027C15.9023 96.3027 14.6523 95.7591 13.7148 94.6719C12.7773 93.5781 12.3086 92.2012 12.3086 90.541C12.3086 88.8809 12.7773 87.5072 13.7148 86.4199C14.6523 85.3327 15.9023 84.7891 17.4648 84.7891C19.0208 84.7891 20.2676 85.3327 21.2051 86.4199C22.1426 87.5072 22.6113 88.8809 22.6113 90.541C22.6113 92.2012 22.1426 93.5781 21.2051 94.6719C20.2676 95.7591 19.0208 96.3027 17.4648 96.3027ZM17.4648 94.7891C18.4349 94.7891 19.2064 94.4115 19.7793 93.6562C20.3522 92.901 20.6387 91.8626 20.6387 90.541C20.6387 89.2259 20.3522 88.1908 19.7793 87.4355C19.2064 86.6803 18.4349 86.3027 17.4648 86.3027C16.4883 86.3027 15.7135 86.6803 15.1406 87.4355C14.5677 88.1908 14.2812 89.2259 14.2812 90.541C14.2812 91.8626 14.5677 92.901 15.1406 93.6562C15.7135 94.4115 16.4883 94.7891 17.4648 94.7891Z" fill="#008080"/>
<path d="M34.1055 95.5605C33.2526 95.9186 32.6341 96.1302 32.25 96.1953C31.8659 96.2669 31.4948 96.3027 31.1367 96.3027C30.375 96.3027 29.6784 96.1562 29.0469 95.8633C28.4154 95.5703 27.9368 95.1374 27.6113 94.5645C27.2923 93.9915 27.1328 93.1061 27.1328 91.9082V87.5137H24.4082V86H27.1328V81.6055H28.9492V86H33.8027V87.5137H28.9492V91.8789C28.9492 92.7578 29.0534 93.3796 29.2617 93.7441C29.4701 94.1022 29.7467 94.3659 30.0918 94.5352C30.4434 94.7044 30.8568 94.7891 31.332 94.7891C32.2109 94.7891 33.1354 94.5124 34.1055 93.959V95.5605Z" fill="#008080"/>
<path d="M46.0684 95.2773C44.6165 95.9674 43.2428 96.3125 41.9473 96.3125C40.9642 96.3125 40.0853 96.0684 39.3105 95.5801C38.5358 95.0918 37.9141 94.3952 37.4453 93.4902C36.9831 92.5788 36.752 91.6055 36.752 90.5703C36.752 89.5742 36.9733 88.6172 37.416 87.6992C37.8587 86.7812 38.4772 86.0684 39.2715 85.5605C40.0658 85.0462 40.9512 84.7891 41.9277 84.7891C43.2233 84.7891 44.2617 85.2513 45.043 86.1758C45.8307 87.1003 46.2246 88.526 46.2246 90.4531V90.8438H38.7051C38.7051 91.599 38.8613 92.2891 39.1738 92.9141C39.4928 93.5391 39.9095 94.0078 40.4238 94.3203C40.9382 94.6328 41.5241 94.7891 42.1816 94.7891C43.3535 94.7891 44.6491 94.3984 46.0684 93.6172V95.2773ZM38.8125 89.4863H44.252V89.2227C44.252 88.3307 44.0339 87.6211 43.5977 87.0938C43.1615 86.5664 42.5788 86.3027 41.8496 86.3027C41.1139 86.3027 40.4759 86.5729 39.9355 87.1133C39.4017 87.6471 39.0273 88.4381 38.8125 89.4863Z" fill="#008080"/>
<path d="M58.1191 95.8242C56.9863 96.2474 55.9707 96.459 55.0723 96.459C53.8874 96.459 52.7969 96.1432 51.8008 95.5117C50.8047 94.8737 50.0299 93.9297 49.4766 92.6797C48.9232 91.4232 48.6465 90.0039 48.6465 88.4219C48.6465 86.8529 48.9199 85.4434 49.4668 84.1934C50.0137 82.9434 50.7852 81.9961 51.7812 81.3516C52.7773 80.707 53.8743 80.3848 55.0723 80.3848C55.9707 80.3848 56.9863 80.5964 58.1191 81.0195V82.8164C57.071 82.2109 56.0293 81.9082 54.9941 81.9082C54.2129 81.9082 53.4967 82.1751 52.8457 82.709C52.2012 83.2428 51.6803 84.0273 51.2832 85.0625C50.8861 86.0911 50.6875 87.2109 50.6875 88.4219C50.6875 89.6523 50.8926 90.7884 51.3027 91.8301C51.7129 92.8717 52.237 93.653 52.875 94.1738C53.513 94.6881 54.2194 94.9453 54.9941 94.9453C56.0228 94.9453 57.0645 94.6426 58.1191 94.0371V95.8242Z" fill="#008080"/>
<path d="M61.9473 96V85.0918H63.7637V87.4746C64.3301 86.5762 64.9779 85.9056 65.707 85.4629C66.4427 85.0137 67.2598 84.7891 68.1582 84.7891C68.8158 84.7891 69.4733 84.89 70.1309 85.0918V89.0273H68.3828V86.5371C68.0768 86.485 67.8359 86.459 67.6602 86.459C66.9831 86.459 66.319 86.7259 65.668 87.2598C65.0169 87.7936 64.3822 88.5944 63.7637 89.6621V96H61.9473Z" fill="#008080"/>
<path d="M80.1992 93.5488C79.6458 94.4603 78.9785 95.1471 78.1973 95.6094C77.4225 96.0716 76.7096 96.3027 76.0586 96.3027C75.1471 96.3027 74.3268 95.9089 73.5977 95.1211C72.875 94.3333 72.5137 93.1387 72.5137 91.5371C72.5137 90.2741 72.7546 89.1478 73.2363 88.1582C73.7181 87.1621 74.3626 86.3776 75.1699 85.8047C75.9772 85.2253 76.9766 84.9355 78.168 84.9355C78.513 84.9355 79.0339 84.9714 79.7305 85.043C79.8346 85.056 79.9909 85.0723 80.1992 85.0918H82.0254V92.7969C82.0254 94.112 82.1621 95.1797 82.4355 96H80.541C80.3978 95.401 80.2839 94.584 80.1992 93.5488ZM80.1992 91.3906V86.7129C79.5547 86.5436 78.9557 86.459 78.4023 86.459C77.2826 86.459 76.3483 86.8919 75.5996 87.7578C74.8574 88.6237 74.4863 89.8021 74.4863 91.293C74.4863 92.3737 74.6881 93.1908 75.0918 93.7441C75.502 94.291 75.9674 94.5645 76.4883 94.5645C77.0547 94.5645 77.6797 94.278 78.3633 93.7051C79.0469 93.1322 79.6589 92.3607 80.1992 91.3906Z" fill="#008080"/>
<path d="M87.582 96V87.5137H85.1602V86H87.582V85.4922C87.582 84.0534 87.7448 82.9889 88.0703 82.2988C88.3958 81.6087 88.8971 81.0423 89.5742 80.5996C90.2578 80.1569 91.1595 79.9355 92.2793 79.9355C93.1256 79.9355 93.985 80.0234 94.8574 80.1992V81.9277C93.9134 81.6152 93.0768 81.459 92.3477 81.459C91.7682 81.459 91.2572 81.5664 90.8145 81.7812C90.3717 81.9961 90.0234 82.3477 89.7695 82.8359C89.5221 83.3177 89.3984 84.138 89.3984 85.2969V86H93.7246V87.5137H89.3984V96H87.582Z" fill="#008080"/>
<path d="M106.176 95.5605C105.323 95.9186 104.704 96.1302 104.32 96.1953C103.936 96.2669 103.565 96.3027 103.207 96.3027C102.445 96.3027 101.749 96.1562 101.117 95.8633C100.486 95.5703 100.007 95.1374 99.6816 94.5645C99.3626 93.9915 99.2031 93.1061 99.2031 91.9082V87.5137H96.4785V86H99.2031V81.6055H101.02V86H105.873V87.5137H101.02V91.8789C101.02 92.7578 101.124 93.3796 101.332 93.7441C101.54 94.1022 101.817 94.3659 102.162 94.5352C102.514 94.7044 102.927 94.7891 103.402 94.7891C104.281 94.7891 105.206 94.5124 106.176 93.959V95.5605Z" fill="#008080"/>
<defs>
<linearGradient id="paint0_linear_4_76" x1="53.426" y1="-191.95" x2="53.426" y2="96.4571" gradientUnits="userSpaceOnUse">
<stop stop-color="#40E0D0"/>
<stop offset="1" stop-color="#008080"/>
</linearGradient>
</defs>
</svg>
